<?xml version="1.0" encoding="utf-8"?>
<!-- Generator: Adobe Illustrator 19.2.0, SVG Export Plug-In . SVG Version: 6.00 Build 0)  -->
<svg version="1.1" id="Layer_1" xmlns="http://www.w3.org/2000/svg" xmlns:xlink="http://www.w3.org/1999/xlink" x="0px" y="0px"
	 viewBox="0 0 512 512" style="enable-background:new 0 0 512 512;" xml:space="preserve">
<style type="text/css">
	.st0{fill:#EEBA21;}
	.st1{fill:#2B3E51;}
	.st2{fill:#08B7A1;}
	.st3{fill:#07979B;}
	.st4{fill:#ECF0F1;}
	.st5{fill:#2C97DE;}
	.st6{fill:#1ECA6B;}
	.st7{fill:#BDC3C7;}
	.st8{fill:#33495F;}
	.st9{fill:#007887;}
	.st10{fill:#035B60;}
	.st11{fill:#F4C342;}
	.st12{fill:#F89B36;}
	.st13{fill:#EC7C2D;}
	.st14{fill:#D9521E;}
</style>
<circle class="st0" cx="256" cy="256" r="256"/>
<g>
	<path class="st1" d="M403,150.9c0-4.9-4-8.9-8.9-8.9H116.9c-4.9,0-8.9,4-8.9,8.9v182.1c0,4.9,4,8.9,8.9,8.9h277.1
		c4.9,0,8.9-4,8.9-8.9L403,150.9L403,150.9z"/>
	<path class="st2" d="M385.4,152H255.8H126.2c-4.9,0-9.2,3.4-9.2,8.3v140.4c0,4.9,4.3,9.3,9.2,9.3h129.6h129.6
		c4.9,0,7.6-4.4,7.6-9.3V160.3C393,155.4,390.4,152,385.4,152z"/>
	<path class="st3" d="M385.4,152H255v158h130.4c4.9,0,7.6-4.4,7.6-9.3V160.3C393,155.4,390.4,152,385.4,152z"/>
	<path class="st4" d="M81,388v7c0,0.4,0.3,0.9,0.3,1.3c0.7,5.9,5.9,10.7,11.9,10.7H418c6,0,11.3-4.8,12-10.7c0.1-0.4,0-0.9,0-1.3v-7
		H81z"/>
	<circle class="st5" cx="368.4" cy="396.5" r="4.8"/>
	<circle class="st6" cx="381.8" cy="396.5" r="4.8"/>
	<polygon class="st7" points="403.3,319 108.3,319 81.5,388 430.1,388 	"/>
	<path class="st8" d="M98.2,378c-2,0-3-1.3-2.3-3.1l17.1-43c0.7-1.8,2.9-2.9,4.9-2.9h275.7c2,0,4.2,1.2,4.9,3l17.1,43
		c0.7,1.8-0.3,3-2.3,3H98.2z"/>
</g>
<path class="st9" d="M349.3,62.5c-29.3-15.8-86.2,134.1-86.2,134.1l8.1,4.5l8.3,4.7C279.4,205.8,378,79.4,349.3,62.5z"/>
<path class="st10" d="M349.3,62.5l-78.1,138.6l8.3,4.7C279.4,205.8,378,79.4,349.3,62.5z"/>
<rect x="253.7" y="202.1" transform="matrix(0.491 -0.8712 0.8712 0.491 -49.0051 338.7477)" class="st11" width="23.4" height="18.5"/>
<rect x="257.7" y="209" transform="matrix(0.4909 -0.8712 0.8712 0.4909 -48.9143 343.4485)" class="st12" width="23.4" height="9.3"/>
<path class="st13" d="M251.6,217c0,0-35.6-0.9-36,34.9c-0.4,35.9-23.4,26.5-23.4,26.5s32.4,31.5,68.1-2.7
	c30.7-29.4,7.4-49.6,7.4-49.6L251.6,217z"/>
<path class="st14" d="M267.7,226.1l-16.1-9.1c0,0-2.3-0.1-5.6,0.4c2.1,1.9,21.5,21.6-7.6,49.5c-15,14.4-29.4,17.1-41.1,15.5
	c10.4,7.2,35.8,19.4,63-6.7C291,246.3,267.7,226.1,267.7,226.1z"/>
</svg>
