<?xml version="1.0" encoding="utf-8"?>
<!-- Generator: Adobe Illustrator 19.2.0, SVG Export Plug-In . SVG Version: 6.00 Build 0)  -->
<svg version="1.1" id="Layer_1" xmlns="http://www.w3.org/2000/svg" xmlns:xlink="http://www.w3.org/1999/xlink" x="0px" y="0px"
	 viewBox="0 0 496.2 496.2" style="enable-background:new 0 0 496.2 496.2;" xml:space="preserve">
<style type="text/css">
	.st0{fill:#EEBA21;}
	.st1{fill:#0C0908;}
	.st2{fill:#007887;}
	.st3{fill:#969899;}
	.st4{fill:#7F3E09;}
	.st5{fill:#261D17;}
	.st6{fill:#8E4809;}
	.st7{fill:#DD6B6B;}
	.st8{fill:#C95959;}
	.st9{fill:#F3FAFF;}
</style>
<path class="st0" d="M248.1,0C111.1,0,0,111.1,0,248.1c0,137,111.1,248.1,248.1,248.1c137,0,248.1-111.1,248.1-248.1
	C496.2,111.1,385.1,0,248.1,0z"/>
<rect x="172.6" y="193.5" class="st1" width="150" height="214.7"/>
<path class="st2" d="M394.8,382.7c-7.3-27.3-69.9-49.3-147.1-49.3s-139.1,22.1-146.4,49.3c-3.3,12.2-7,35.2-10.1,57.5
	c42.7,34.9,97.4,55.9,156.9,55.9c59.5,0,114.1-21,156.9-55.9C401.8,417.9,398.1,394.9,394.8,382.7z"/>
<polygon class="st3" points="247.8,317 208.3,322.2 210.2,335.4 247.8,363.5 286,335.4 287.9,322.2 "/>
<path class="st4" d="M287,282.1h-77.8c12.1,36.6,1,53.3,1,53.3l26.9,12.6h22l26.9-12.6C286,335.4,274.8,318.7,287,282.1z"/>
<g>
	<path class="st5" d="M173.1,102.1c-54,106-32,354.6-32,354.6l1.9-1c0,0,50.8-205.2,154.9-280.7L173.1,102.1z"/>
	<path class="st5" d="M323,102.1l-124.8,73c104.1,75.4,154.9,280.7,154.9,280.7l1.9,1C355,456.7,377,208.1,323,102.1z"/>
</g>
<path class="st6" d="M248.1,61.6c-44,0-79.8,21.2-79.8,113.6c0,31.3,5.6,55.8,14,74.7c18.4,41.6,50.3,56.1,65.8,56.1
	s47.3-14.5,65.8-56.1c8.4-18.9,14-43.4,14-74.7C327.8,82.7,292.1,61.6,248.1,61.6z"/>
<path class="st7" d="M258.5,257.7c-3-0.4-10.4,2.5-10.4,2.5s-7.6-2.9-10.6-2.5c-4.8,0.7-11.9,9-11.9,10.3c0,0,10.1,5.2,22.5,5.2
	s22.5-5.2,22.5-5.2S263.4,258.5,258.5,257.7z"/>
<path class="st8" d="M254.2,264.4c-2-0.1-4.5,1.7-6.1,1.7c-1.9,0-4.8-1.8-7-1.6c-13.1,0.8-15.5,3.6-15.5,3.6s10.1,9.1,22.5,9.1
	c12.4,0,22.5-9.1,22.5-9.1S267.9,265.1,254.2,264.4z"/>
<path class="st4" d="M247.8,317l-37.7,18.4c0,0,31.7,28.1,37.6,28.1s38.2-28.1,38.2-28.1L247.8,317z"/>
<path class="st5" d="M248.1,61.6C248.1,61.6,248.1,61.6,248.1,61.6C248.1,61.6,248.1,61.6,248.1,61.6c-48.7,0-88.3,21.2-88.3,113.6
	h102.3l9.5-14.1l10,14.1h54.8C336.3,82.7,296.8,61.6,248.1,61.6z"/>
<g>
	<path class="st6" d="M169.8,178c-7.6,1.3-13.4,4.6-9.1,29.7c4.3,25.2,9.6,26.3,17.3,25L169.8,178z"/>
	<path class="st6" d="M326.5,178l-8.1,54.8c7.6,1.3,13,0.1,17.3-25S334.1,179.3,326.5,178z"/>
</g>
<g>
	<path class="st5" d="M174.7,181.4c-1-6.6,0.1-11.8,0.1-11.8l-15,5.6c0,0,9.3,1.2,12.6,11.9C172.4,187.1,176.1,189.8,174.7,181.4z"
		/>
	<path class="st5" d="M321.4,169.6c0,0,1.1,5.2,0.1,11.8c-1.3,8.4,2.3,5.7,2.3,5.7c3.3-10.7,12.6-11.9,12.6-11.9L321.4,169.6z"/>
</g>
<g>
	<path class="st9" d="M287.9,322.2l-39.8,41.2c0,0,34-4.7,34.2-4.9l23.5-20.8L287.9,322.2z"/>
	<path class="st9" d="M208.3,322.2l-17.9,15.5l23.5,20.8c0.2,0.2,34.2,4.9,34.2,4.9L208.3,322.2z"/>
</g>
</svg>
