<?xml version="1.0" encoding="utf-8"?>
<!-- Generator: Adobe Illustrator 19.2.0, SVG Export Plug-In . SVG Version: 6.00 Build 0)  -->
<svg version="1.1" id="Layer_1" xmlns="http://www.w3.org/2000/svg" xmlns:xlink="http://www.w3.org/1999/xlink" x="0px" y="0px"
	 viewBox="0 0 496.2 496.2" style="enable-background:new 0 0 496.2 496.2;" xml:space="preserve">
<style type="text/css">
	.st0{fill:#337180;}
	.st1{fill:#EEBA21;}
	.st2{fill:#544C54;}
	.st3{fill:#E2A379;}
	.st4{fill:#F7F7F7;}
	.st5{fill:#602F0F;}
	.st6{fill:#F4B382;}
</style>
<path class="st0" d="M248.1,0C111.1,0,0,111.1,0,248.1s111.1,248.1,248.1,248.1s248.1-111.1,248.1-248.1S385.1,0,248.1,0z"/>
<path class="st1" d="M394.8,382.7c-7.3-27.3-69.9-49.3-147.1-49.3s-139.1,22.1-146.4,49.3c-3.3,12.2-7,35.2-10.1,57.5
	c42.7,34.9,97.4,55.9,156.9,55.9s114.1-21,156.9-55.9C401.8,417.9,398.1,394.9,394.8,382.7z"/>
<path class="st2" d="M247.7,333.4c-18.9,0-36.9,1.3-53.5,3.7c0.3,21.9,7.1,64.1,53.9,64.1s53.4-42.1,53.7-64
	C285.2,334.8,266.9,333.4,247.7,333.4z"/>
<g>
	<path class="st3" d="M247.8,317l-37.7,18.4c0,0,16.8,28.1,37.6,28.1s38.2-28.1,38.2-28.1L247.8,317z"/>
	<path class="st3" d="M287,282.1h-77.8c12.1,36.6,1,53.3,1,53.3l26.9,6.1h22l26.9-6.1C286,335.4,274.8,318.7,287,282.1z"/>
</g>
<path class="st4" d="M285.9,335.4c0,0-8.9,17.3-38.1,17.3s-37.5-17.3-37.5-17.3s-7,54.7,37.9,54.7S285.9,335.4,285.9,335.4z"/>
<path class="st5" d="M248.1,61.6c-48.7,0-88.3,21.2-88.3,113.6c0,31.3,6.2,55.8,15.5,74.7c20.4,41.6,55.7,56.1,72.8,56.1
	s52.4-14.5,72.8-56.1c9.3-18.9,15.5-43.4,15.5-74.7C336.3,82.7,296.8,61.6,248.1,61.6z"/>
<g>
	<path class="st6" d="M248.1,61.6c-48.7,0-88.3,21.2-88.3,113.6c0,31.3,6.2,55.8,15.5,74.7c20.4,41.6,55.7,35.4,72.8,35.4
		s52.4,6.2,72.8-35.4c9.3-18.9,15.5-43.4,15.5-74.7C336.3,82.7,296.8,61.6,248.1,61.6z"/>
	<path class="st6" d="M161.4,178c-8.4,1.4-14.9,5.1-10.1,32.9c4.8,27.8,10.7,29.1,19.1,27.7L161.4,178z"/>
</g>
<g>
	<path class="st5" d="M248.1,61.6c-48.7,0-88.3,21.2-88.3,113.6l74.6-37.1l12.2-32.5l89.8,69.6C336.3,82.7,296.8,61.6,248.1,61.6z"
		/>
	<path class="st5" d="M180.1,141.7l-14.6-1c-4.2,10.9-5.6,24.4-5.6,37.5c0,0,8.8-1.9,8.8,2.6l2.8,27.6l3.9-1.9
		C175,183.6,180.1,141.7,180.1,141.7z"/>
</g>
<path class="st6" d="M334.9,178l-9,60.6c8.4,1.4,14.4,0.1,19.1-27.7S343.3,179.5,334.9,178z"/>
<path class="st5" d="M330.8,140.8l-14.6-0.4c0,0,5.1,43.2,4.9,66.2l3.9,1.9l2.8-27.6c0-4.5,8.8-2.6,8.8-2.6
	C336.4,165.1,335.1,151.6,330.8,140.8z"/>
</svg>
