<?xml version="1.0" encoding="utf-8"?>
<!-- Generator: Adobe Illustrator 19.2.0, SVG Export Plug-In . SVG Version: 6.00 Build 0)  -->
<svg version="1.1" id="Layer_1" xmlns="http://www.w3.org/2000/svg" xmlns:xlink="http://www.w3.org/1999/xlink" x="0px" y="0px"
	 viewBox="0 0 508 508" style="enable-background:new 0 0 508 508;" xml:space="preserve">
<style type="text/css">
	.st0{fill:#FF5A5F;}
	.st1{fill:#FFFFFF;}
	.st2{fill:#324A5E;}
	.st3{fill:#06B6BA;}
	.st4{fill:#00D0C3;}
	.st5{fill:#E6E9EE;}
	.st6{fill:#FBD33D;}
</style>
<circle class="st0" cx="254" cy="254" r="254"/>
<path class="st1" d="M205.2,368.4l-80,29.6c-10,3.6-19.6-6-15.6-15.6l29.6-80l34-34l65.6,65.6L205.2,368.4z"/>
<g>
	<path class="st2" d="M120.4,353.6l-10.8,28.8c-3.6,10,6,19.6,15.6,15.6l28.8-10.8L120.4,353.6z"/>
</g>
<g>
	<path class="st3" d="M331.6,209.2L205.2,335.6c-9.2,9.2-9.2,24,0,32.8L348,225.6L331.6,209.2z"/>
	<path class="st3" d="M282.4,160L139.6,302.8c9.2,9.2,24,9.2,32.8,0l126.4-126.4L282.4,160z"/>
</g>
<path class="st4" d="M298.8,176.4L172.4,302.8c-9.2,9.2-9.2,24,0,32.8c9.2,9.2,24,9.2,32.8,0l126.4-126.4L298.8,176.4z"/>
<rect x="308.4" y="129.9" transform="matrix(0.7071 -0.7071 0.7071 0.7071 -27.7506 286.0025)" class="st5" width="46" height="93.2"/>
<path class="st6" d="M403.6,151.2l-46.8-46.8c-5.2-5.2-13.6-5.2-18.8,0l-23.2,23.2l65.6,65.6l23.2-23.2
	C408.8,164.8,408.8,156.4,403.6,151.2z"/>
<g>
	<path class="st1" d="M366.8,206L302,141.2c-1.6-1.6-1.6-4.8,0-6.4l0,0c1.6-1.6,4.8-1.6,6.4,0l64.8,64.8c1.6,1.6,1.6,4.8,0,6.4l0,0
		C371.6,208,368.8,208,366.8,206z"/>
	<path class="st1" d="M354.4,218.4l-64.8-64.8c-1.6-1.6-1.6-4.8,0-6.4l0,0c1.6-1.6,4.8-1.6,6.4,0l64.8,64.8c1.6,1.6,1.6,4.8,0,6.4
		l0,0C359.2,220,356.4,220,354.4,218.4z"/>
</g>
</svg>
