<?xml version="1.0" encoding="utf-8"?>
<!-- Generator: Adobe Illustrator 19.2.0, SVG Export Plug-In . SVG Version: 6.00 Build 0)  -->
<svg version="1.1" id="Layer_1" xmlns="http://www.w3.org/2000/svg" xmlns:xlink="http://www.w3.org/1999/xlink" x="0px" y="0px"
	 viewBox="0 0 512 512" style="enable-background:new 0 0 512 512;" xml:space="preserve">
<style type="text/css">
	.st0{fill:#F7CA3E;}
	.st1{fill:#00D0C3;}
	.st2{fill:#F5F5F5;}
</style>
<circle class="st0" cx="256" cy="256" r="256"/>
<path class="st1" d="M412,280l-60-64l-60,127.3L172,280L52,400v10.6C98.8,472.2,172.7,512,256,512c141.4,0,256-114.6,256-256
	c0-44.8-11.5-86.8-31.7-123.4L412,280z"/>
<path class="st2" d="M52,408c-2,0-4.1-0.8-5.7-2.3c-3.1-3.1-3.1-8.2,0-11.3l120-120c2.5-2.5,6.3-3.1,9.4-1.4l112.6,59.4l56.4-119.7
	c1.1-2.4,3.4-4.1,6-4.5c2.6-0.4,5.3,0.5,7.1,2.4l51.9,55.4l71-153.2c1.9-4,6.6-5.7,10.6-3.9c4,1.9,5.8,6.6,3.9,10.6l-76,164
	c-1.1,2.4-3.4,4.1-6,4.5c-2.6,0.4-5.3-0.5-7.1-2.4l-51.9-55.4l-55,116.6c-0.9,2-2.6,3.5-4.7,4.2c-2.1,0.7-4.3,0.5-6.3-0.5
	l-114.8-60.5L57.7,405.7C56.1,407.2,54,408,52,408z"/>
<circle class="st1" cx="172" cy="280" r="16"/>
<path class="st2" d="M172,264c8.8,0,16,7.2,16,16s-7.2,16-16,16s-16-7.2-16-16S163.2,264,172,264 M172,256c-13.2,0-24,10.8-24,24
	s10.8,24,24,24s24-10.8,24-24S185.2,256,172,256L172,256z"/>
<circle class="st1" cx="47" cy="404" r="16"/>
<path class="st2" d="M47,388c8.8,0,16,7.2,16,16s-7.2,16-16,16s-16-7.2-16-16S38.1,388,47,388 M47,380c-13.2,0-24,10.8-24,24
	s10.8,24,24,24s24-10.8,24-24S60.2,380,47,380L47,380z"/>
<circle class="st1" cx="487" cy="116" r="16"/>
<path class="st2" d="M487,100c8.8,0,16,7.2,16,16s-7.2,16-16,16c-8.8,0-16-7.2-16-16S478.1,100,487,100 M487,92
	c-13.2,0-24,10.8-24,24s10.8,24,24,24c13.2,0,24-10.8,24-24S500.2,92,487,92L487,92z"/>
<circle class="st1" cx="352" cy="216" r="16"/>
<path class="st2" d="M352,200c8.8,0,16,7.2,16,16s-7.2,16-16,16s-16-7.2-16-16S343.2,200,352,200 M352,192c-13.2,0-24,10.8-24,24
	s10.8,24,24,24s24-10.8,24-24S365.2,192,352,192L352,192z"/>
</svg>
