<?xml version="1.0" encoding="utf-8"?>
<!-- Generator: Adobe Illustrator 19.2.0, SVG Export Plug-In . SVG Version: 6.00 Build 0)  -->
<svg version="1.1" id="Layer_1" xmlns="http://www.w3.org/2000/svg" xmlns:xlink="http://www.w3.org/1999/xlink" x="0px" y="0px"
	 viewBox="0 0 512 512" style="enable-background:new 0 0 512 512;" xml:space="preserve">
<style type="text/css">
	.st0{fill:#FF5A5F;}
	.st1{fill:#E74E4E;}
	.st2{fill:#666666;}
	.st3{fill:#00D0C3;}
	.st4{fill:#807D7D;}
	.st5{fill:#FFFFFF;}
	.st6{fill:#FFBA1B;}
	.st7{fill:#D0D1D4;}
	.st8{fill:#FBB429;}
</style>
<path class="st0" d="M256,0c141.4,0,256,114.6,256,256c0,141.4-114.6,256-256,256S0,397.4,0,256C0,114.6,114.6,0,256,0z"/>
<path class="st1" d="M256,380.7c4.5,0,8.1,3.6,8.1,8.1c0,4.5-3.6,8.1-8.1,8.1c-4.5,0-8.1-3.6-8.1-8.1
	C247.9,384.3,251.5,380.7,256,380.7z"/>
<path class="st2" d="M96.9,155.4h318.3c13.1,0,23.8,10.7,23.8,23.8v154.9v11.1V372h-0.1l0,0.3c0,5.3,0.1,15.8,0.1,21.1
	c0,4.4-3.6,7.9-7.9,7.9H297.7v33.4h24.5c3.8,0,6.9,3.1,6.9,6.9c0,3.8-3.1,6.9-6.9,6.9H189.8c-3.8,0-6.9-3.1-6.9-6.9
	c0-3.8,3.1-6.9,6.9-6.9h24.5v-33.4H81.1c-4.4,0-7.9-3.6-7.9-7.9c0-5.3,0-15.8,0-21.1l0-0.3H73v-26.8v-11.1V179.2
	C73,166.1,83.8,155.4,96.9,155.4L96.9,155.4z"/>
<path class="st3" d="M92,171.8H420v180.8H92V171.8z"/>
<path class="st4" d="M256,380.7c4.5,0,8.1,3.6,8.1,8.1c0,4.5-3.6,8.1-8.1,8.1c-4.5,0-8.1-3.6-8.1-8.1
	C247.9,384.3,251.5,380.7,256,380.7z"/>
<path class="st5" d="M143.3,63.4h178.3l47,47v242.2H143.3V63.4z"/>
<g>
	<path class="st6" d="M321.7,63.4v47h47L321.7,63.4z"/>
	<path class="st6" d="M370.4,400.4l-24.2-33.3L329.6,379l-13.7-69.4l62.1,34.9l-16.7,11.9l24.2,33.3L370.4,400.4L370.4,400.4z"/>
</g>
<path class="st7" d="M170.9,184.2h154.5v5.1H170.9V184.2z M170.9,165.5L170.9,165.5h118.3v5.1H170.9V165.5z M170.9,156L170.9,156
	h154.5v5.1H170.9V156z M170.9,146.4L170.9,146.4h154.5v5.1H170.9V146.4z M170.9,136.9L170.9,136.9h154.5v5.1H170.9V136.9z
	 M170.9,127.4L170.9,127.4h154.5v5.1H170.9V127.4z M170.9,222.3L170.9,222.3h118.3v5.1H170.9V222.3z M170.9,212.8L170.9,212.8h154.5
	v5.1H170.9V212.8z M170.9,203.3L170.9,203.3h154.5v5.1H170.9V203.3z M170.9,193.7L170.9,193.7h154.5v5.1H170.9V193.7z"/>
<path class="st8" d="M304.9,394.2l-5.4-3.1l10.4-18.1l5.4,3.1L304.9,394.2L304.9,394.2z M367.7,275.5L367.7,275.5l5.4,3.1
	l-10.4,18.1l-5.4-3.1L367.7,275.5L367.7,275.5z M393.1,299.1L393.1,299.1l3.1,5.4L378.1,315l-3.1-5.4L393.1,299.1L393.1,299.1z
	 M403.3,332.3L403.3,332.3v6.2h-20.9v-6.2H403.3z M279.5,370.5L279.5,370.5l-3.1-5.4l18.1-10.4l3.1,5.4L279.5,370.5L279.5,370.5z
	 M269.2,337.3L269.2,337.3v-6.2h20.9v6.2H269.2z M277,303.5L277,303.5l3.1-5.4l18.1,10.4l-3.1,5.4L277,303.5L277,303.5z M300.6,278
	L300.6,278l5.4-3.1l10.4,18.1l-5.4,3.1L300.6,278L300.6,278z M333.8,267.8L333.8,267.8h6.2v20.9h-6.2V267.8z"/>
</svg>
