<?xml version="1.0" encoding="utf-8"?>
<!-- Generator: Adobe Illustrator 19.2.0, SVG Export Plug-In . SVG Version: 6.00 Build 0)  -->
<svg version="1.1" id="Layer_1" xmlns="http://www.w3.org/2000/svg" xmlns:xlink="http://www.w3.org/1999/xlink" x="0px" y="0px"
	 viewBox="0 0 496.2 496.2" style="enable-background:new 0 0 496.2 496.2;" xml:space="preserve">
<style type="text/css">
	.st0{fill:#007887;}
	.st1{fill:#4ABC96;}
	.st2{fill:#FBD33D;}
	.st3{fill:#3E4249;}
	.st4{fill:#E2A379;}
	.st5{fill:#602F0F;}
	.st6{fill:#F4B382;}
	.st7{fill:#E24444;}
	.st8{fill:#D33D3D;}
</style>
<path class="st0" d="M248.1,0C111.1,0,0,111.1,0,248.1s111.1,248.1,248.1,248.1s248.1-111.1,248.1-248.1S385.1,0,248.1,0z"/>
<path class="st1" d="M394.8,382.7c-7.3-27.3-69.9-49.3-147.1-49.3s-139.1,22.1-146.4,49.3c-3.3,12.2-7,35.2-10.1,57.5
	c42.7,34.9,97.4,55.9,156.9,55.9s114.1-21,156.9-55.9C401.8,417.9,398.1,394.9,394.8,382.7z"/>
<path class="st2" d="M394.8,382.7c-7.3-27.3-69.9-49.3-147.1-49.3s-139.1,22.1-146.4,49.3c-3.3,12.2-7,35.2-10.1,57.5
	c42.7,34.9,97.4,55.9,156.9,55.9s114.1-21,156.9-55.9C401.8,417.9,398.1,394.9,394.8,382.7z"/>
<path class="st3" d="M327.4,342.1c-22.9-5.5-50.2-8.7-79.6-8.7c-28.9,0-55.7,3.1-78.3,8.4c-4.7,21.7-21.6,100.6-27.2,130.7
	c32.1,15.2,68,23.7,105.8,23.7c37.6,0,73.2-8.4,105.1-23.3L327.4,342.1z"/>
<path class="st4" d="M287,282.1h-77.8c12.1,36.6,1,53.3,1,53.3l26.9,6.1h22l26.9-6.1C286,335.4,274.8,318.7,287,282.1z"/>
<path class="st5" d="M297.9,175.1l-107.6-5.7c-90.7,91.1-35.2,149.9-17.4,178.6c35.8,57.7-3.6,77.7-3.6,77.7l1.9-1
	c0,0,69.8-13.5,43.7-76.2C201.9,317.4,193.8,250.5,297.9,175.1z"/>
<path class="st6" d="M248.1,61.6c-44,0-79.8,21.2-79.8,113.6c0,31.3,5.6,55.8,14,74.7c18.4,41.6,50.3,56.1,65.8,56.1
	s47.3-14.5,65.8-56.1c8.4-18.9,14-43.4,14-74.7C327.8,82.7,292.1,61.6,248.1,61.6z"/>
<path class="st7" d="M258.5,257.7c-3-0.4-10.4,2.5-10.4,2.5s-7.6-2.9-10.6-2.5c-4.8,0.7-11.9,9-11.9,10.3c0,0,10.1,5.2,22.5,5.2
	s22.5-5.2,22.5-5.2S263.4,258.5,258.5,257.7z"/>
<path class="st8" d="M254.2,264.4c-2-0.1-4.5,1.7-6.1,1.7c-1.9,0-4.8-1.8-7-1.6c-13.1,0.8-15.5,3.6-15.5,3.6s10.1,9.1,22.5,9.1
	c12.4,0,22.5-9.1,22.5-9.1S267.9,265.1,254.2,264.4z"/>
<path class="st4" d="M247.8,352.7c-29.2,0-37.5-17.3-37.5-17.3l37.9,151.2L286,335.4C285.9,335.4,277,352.7,247.8,352.7z"/>
<polygon class="st2" points="225,394.1 248.2,486.6 271.3,394.1 "/>
<path class="st4" d="M247.8,317l-37.7,18.4c0,0,16.8,28.1,37.6,28.1s38.2-28.1,38.2-28.1L247.8,317z"/>
<path class="st5" d="M248.1,61.6L248.1,61.6L248.1,61.6c-48.7,0-88.3,21.2-88.3,113.6c0,0,88.2-22.6,88.2-56.2
	c0,33.6,88.3,56.2,88.3,56.2C336.3,82.7,296.8,61.6,248.1,61.6z"/>
<g>
	<path class="st6" d="M169.8,178c-7.6,1.3-13.4,4.6-9.1,29.7c4.3,25.2,9.6,26.3,17.3,25L169.8,178z"/>
	<path class="st6" d="M326.5,178l-8.1,54.8c7.6,1.3,13,0.1,17.3-25S334.1,179.3,326.5,178z"/>
</g>
<g>
	<path class="st5" d="M174.7,181.4c-1-6.6,0.1-11.8,0.1-11.8l-15,5.6c0,0,9.3,1.2,12.6,11.9C172.4,187.1,176.1,189.8,174.7,181.4z"
		/>
	<path class="st5" d="M321.4,169.6c0,0,1.1,5.2,0.1,11.8c-1.3,8.4,2.3,5.7,2.3,5.7c3.3-10.7,12.6-11.9,12.6-11.9L321.4,169.6z"/>
	<path class="st5" d="M214.9,348.5c-4.4-10.5-8.2-25-7.4-42.5H148c7.6,17.8,18.6,31.7,24.9,41.9c35.8,57.7-3.6,77.7-3.6,77.7l1.9-1
		C171.2,424.7,241.1,411.2,214.9,348.5z"/>
</g>
</svg>
