<?xml version="1.0" encoding="utf-8"?>
<!-- Generator: Adobe Illustrator 19.2.0, SVG Export Plug-In . SVG Version: 6.00 Build 0)  -->
<svg version="1.1" id="Layer_1" xmlns="http://www.w3.org/2000/svg" xmlns:xlink="http://www.w3.org/1999/xlink" x="0px" y="0px"
	 viewBox="0 0 496.2 496.2" style="enable-background:new 0 0 496.2 496.2;" xml:space="preserve">
<style type="text/css">
	.st0{fill:#B0CCE2;}
	.st1{fill:#46729E;}
	.st2{fill:#00D0C3;}
	.st3{fill:#D4D6D8;}
	.st4{fill:#E2A379;}
	.st5{fill:#F3FAFF;}
	.st6{fill:#007887;}
	.st7{fill:#F4B382;}
	.st8{fill:#E5A173;}
	.st9{fill:#D89364;}
	.st10{fill:#3A3431;}
</style>
<rect x="269.1" y="171.3" class="st0" width="74.7" height="43.9"/>
<g>
	<rect x="269.1" y="170.4" class="st1" width="74.7" height="6.1"/>
	<path class="st1" d="M336.3,186.1h-30.4c-0.9,0-1.5-0.7-1.5-1.5s0.7-1.5,1.5-1.5h30.4c0.9,0,1.5,0.7,1.5,1.5
		C337.8,185.4,337.1,186.1,336.3,186.1z"/>
	<path class="st1" d="M336.3,197.7h-30.4c-0.9,0-1.5-0.7-1.5-1.5c0-0.9,0.7-1.5,1.5-1.5h30.4c0.9,0,1.5,0.7,1.5,1.5
		S337.1,197.7,336.3,197.7z"/>
	<path class="st1" d="M336.3,209.3h-30.4c-0.9,0-1.5-0.7-1.5-1.5c0-0.9,0.7-1.5,1.5-1.5h30.4c0.9,0,1.5,0.7,1.5,1.5
		S337.1,209.3,336.3,209.3z"/>
	<rect x="274.9" y="181.4" class="st1" width="22.8" height="29"/>
</g>
<path class="st2" d="M496.2,248.1C496.2,111.1,385.1,0,248.1,0S0,111.1,0,248.1s111.1,248.1,248.1,248.1S496.2,385.1,496.2,248.1z"
	/>
<g>
	<path class="st3" d="M248.1,496.2c70.2,0,133.6-29.2,178.7-76c-2.8-15.1-5.6-28.9-8.3-37.4c-8.5-27.3-81.2-49.3-170.8-49.3
		s-161.6,22-170.1,49.2c-2.6,8.5-5.5,22.2-8.3,37.4C114.5,467,177.9,496.2,248.1,496.2z"/>
	<path class="st3" d="M248.2,443.4c19.6,0,41.7-108,41.7-108l-42.2,26.7l-41.5-26.7C206.2,335.4,228.6,443.4,248.2,443.4z"/>
	<polygon class="st3" points="210.2,335.4 247.8,363.5 286,335.4 287.9,322.2 247.8,317 208.3,322.2 	"/>
</g>
<path class="st4" d="M287,282.1h-77.8c12.1,36.6,1,53.3,1,53.3l26.9,6.1h22l26.9-6.1C286,335.4,274.8,318.7,287,282.1z"/>
<g>
	<polygon class="st5" points="282.1,358.7 287.9,322.2 305.7,337.8 	"/>
	<polygon class="st5" points="214.1,358.7 208.3,322.2 190.4,337.8 	"/>
	<path class="st5" d="M305.7,337.8l-17.9-15.5L248,341.5c0,0,34,17.3,34.2,17.1L305.7,337.8z"/>
	<path class="st5" d="M190.4,337.8l17.9-15.5l39.8,19.2c0,0-34,17.3-34.2,17.1L190.4,337.8z"/>
</g>
<g>
	<polygon class="st6" points="248,341.5 232.3,349.4 248,375 263.8,349.4 	"/>
	<path class="st6" d="M251.6,361.9h-3.5v0.7v-0.7h-3.5c0,0-13.4,15.9-15.4,38.5c-2,22-5,70.2-6,94.5c8.2,0.8,16.5,1.2,24.9,1.2
		s16.7-0.4,24.9-1.2c-1-24.3-4-72.4-6-94.5C265,377.8,251.6,361.9,251.6,361.9z"/>
</g>
<path class="st7" d="M336.3,175.2c0-92.4-39.5-113.6-88.3-113.6c-48.7,0-88.3,21.2-88.3,113.6c0,31.3,6.2,55.8,15.5,74.7
	c20.4,41.6,55.7,56.1,72.8,56.1s52.4-14.5,72.8-56.1C330.1,230.9,336.3,206.4,336.3,175.2z"/>
<path class="st8" d="M272.7,261.2c0,2.4-11,8.8-24.7,8.8s-24.7-6.5-24.7-8.8c0-1.5,7.8-5.6,13.1-6.4c3.3-0.5,11.6,2.7,11.6,2.7
	s8.2-3.1,11.4-2.7C264.9,255.5,272.7,261.2,272.7,261.2z"/>
<path class="st9" d="M272.7,261.2c0,2.4-11,11.5-24.7,11.5s-24.7-9.1-24.7-11.5c0,0,10,1.2,24.7,1.2S272.7,261.2,272.7,261.2z"/>
<path class="st10" d="M204,120.7c0,0,7.3,39.9,35.7,45.3c0,0-9.5-28.4-8.7-39.2c0,0,30.6,14.2,40.1,42.6c0,0,3.6-15.5-1.5-39.2
	c0,0,15.3,8.1,13.8,35.1c0,0,11.7-4.7,12.4-20.3c0,0,9.5,14.9,5.1,30.4c0,0,2.2,3.4,6.6-4.1c0,0,17.7,8.7,16.7,37.1
	c0,0,18.5-23.4,12.8-47.3c0,0,5.2,12.8,4.5,21.6c0,0,4.7-19.6-0.4-42.6c0,0,6.6,5.4,8.7,12.8c0,0,8-15.5-12.4-29
	c0,0,10.2-2,11.7,2.7c0,0-5.1-25-20.4-31.7c0,0,6.6-2,15.3,6.8c0,0-3.6-18.9-25.5-25c0,0,4.4-2,11.7,1.4c0,0-5.8-12.2-24-16.2
	c0,0-1.5-6.1,6.6-5.4c0,0-16-7.4-31.3-8.1c0,0,5.1-10.8,13.8-10.8c0,0-21.1-6.1-35.7,2c0,0-8-3.4-2.9-6.1c0,0-39.3-1.4-41.5,19.6
	c0,0-10.9-0.7-20.4-5.4c0,0-9.5,6.8-0.7,14.9c0,0-22.6,0.7-32.8,16.9c0,0,5.1-2,11.7-1.4c0,0-17.5,8.8-19.7,23.6c0,0,5.1-2,10.9-1.4
	c0,0-10.2,6.1-14.6,18.2c0,0,4.4-1.4,10.9-2c0,0-22.6,17.6-22.6,42.6c0,0,8.7-13.5,13.8-13.5c0,0-2.9,21.6,2.9,45.9
	c0,0,3.6-11.5,7.3-10.8c0,0-0.7,18.9,10.9,31.7c0,0,0-43.9,8-44.6c0,0,4.4,6.1,9.5,10.1C190.2,178.1,180.7,124.8,204,120.7z"/>
<g>
	<path class="st7" d="M170.4,238.6c-8.4,1.4-14.4,0.1-19.1-27.7s1.7-31.5,10.1-32.9L170.4,238.6z"/>
	<path class="st7" d="M325.8,238.6c8.4,1.4,14.4,0.1,19.1-27.7s-1.7-31.5-10.1-32.9L325.8,238.6z"/>
</g>
</svg>
